# xmcd
#
# Track frame offsets: 
#        150
#        10005
#        23929
#        36231
#        51450
#        65907
#        85320
#        98303
#        116911
#        130008
#        142641
#        164632
#        182099
#
# Disc length: 2596 seconds
#
# Revision: 0
# Processed by: cddbd v1.5.2PL0 Copyright (c) Steve Scherf et al.
# Submitted via: ExactAudioCopy v1.3
#
DISCID=ad0a220d
DTITLE=Ralph De Jongh - III
DYEAR=2014
DGENRE=Rock
TTITLE0=Bazooka
TTITLE1=Blow me insane
TTITLE2=Before I go astray
TTITLE3=2 feet the soul
TTITLE4=Father
TTITLE5=Skyline
TTITLE6=Lifts you up
TTITLE7=Sweating
TTITLE8=Marrying
TTITLE9=So
TTITLE10=Wide open spaces
TTITLE11=Feet
TTITLE12=Let me be lonely
EXTD=
EXTT0=
EXTT1=
EXTT2=
EXTT3=
EXTT4=
EXTT5=
EXTT6=
EXTT7=
EXTT8=
EXTT9=
EXTT10=
EXTT11=
EXTT12=
PLAYORDER=
